<svg width="79" height="50" viewBox="0 0 79 50" xmlns="http://www.w3.org/2000/svg"><g fill="none" fill-rule="nonzero"><path d="M0 0h79v50H0z" fill="#DDD"/><path d="M30.767 26.512v1.092c-.176.04-.358.06-.545.06-1.26 0-2.405-.897-2.635-2.117l-.503.52v1.597H26V20h1.084v4.4l2.167-2.293h1.506l-1.396 1.514s-.318.344-.57.725c-.1.151-.154.401-.154.574 0 .331.1.659.286.93.41.601 1.16.812 1.844.662zm8.77-1.499c0 .3-.237.542-.53.542a.536.536 0 0 1-.531-.542c0-.3.238-.542.53-.542.294 0 .531.243.531.542zm-.525 1.634c.878 0 1.59-.728 1.59-1.625s-.712-1.625-1.59-1.625c-.878 0-1.59.728-1.59 1.625s.712 1.625 1.59 1.625zm2.56-4.852l.019 3.224c0 1.46-1.157 2.645-2.584 2.645-1.428 0-2.585-1.184-2.585-2.645s1.157-2.646 2.585-2.646c.551 0 1.062.177 1.481.479V20h1.085v1.795zm3.134 4.881c.878 0 1.59-.727 1.59-1.624 0-.898-.712-1.625-1.59-1.625-.878 0-1.59.727-1.59 1.625 0 .897.712 1.624 1.59 1.624zm0-4.296c1.427 0 2.584 1.183 2.584 2.641l-.025 2.271v.372h-1.084v-.475a2.534 2.534 0 0 1-1.475.473c-1.428 0-2.585-1.182-2.585-2.64 0-1.46 1.157-2.642 2.585-2.642zm0 2.082c.293 0 .53.243.53.542 0 .3-.237.542-.53.542a.537.537 0 0 1-.53-.542c0-.299.237-.542.53-.542zm8.288.77v3.08c0 1.667-1.195 2.688-2.584 2.688-1.416 0-2.559-.968-2.582-2.383h1.101c.013.144.03.259.05.33a1.466 1.466 0 0 0 1.431 1.047c.7 0 1.255-.443 1.432-1.047.1-.346.098-.893.086-1.722-.426.278-.95.434-1.518.434-.823 0-1.552-.328-2.025-.88a2.34 2.34 0 0 1-.558-1.546l-.006-2.85h1.084s-.072 2.721.074 3.223c.05.173.133.332.24.472.267.349.692.576 1.191.576.5 0 .924-.227 1.191-.576.108-.14.19-.3.24-.472.147-.502.075-3.223.075-3.223H53l-.006 2.85zm-16.838 1.203c.157.367.392.69.685.947-.365.183-.884.32-1.297.32-1.259 0-2.405-.935-2.635-2.155l-.503.52v1.597h-1.084V20h1.084v4.4l2.241-2.293h1.506l-1.47 1.514s-.317.344-.57.725c-.099.151-.153.401-.153.574 0 .899.712 1.638 1.59 1.638.177 0 .41-.054.606-.123z" fill-opacity=".07" fill="#000"/></g></svg>