<svg width="24" height="24" xmlns="http://www.w3.org/2000/svg"><g fill="none" fill-rule="evenodd"><path d="M0 24h24V0H0z"/><path fill="#AAA" d="M4.919 14.008H8.28v-3.362H4.919z"/><path d="M16.442 2a.8.8 0 00-.8.8V5.11a.8.8 0 101.6 0V2.8a.8.8 0 00-.8-.798zm-9.684.8v2.309a.8.8 0 001.6 0V2.8a.8.8 0 00-1.6 0zM20.57 18.427a2.143 2.143 0 01-2.142 2.144H5.57a2.143 2.143 0 01-2.142-2.144v-8.57H20.57v8.57zm-2.142-15h-.298V5.11c0 .931-.758 1.69-1.689 1.69a1.691 1.691 0 01-1.689-1.69V3.43H9.246v1.68a1.69 1.69 0 01-3.377 0V3.43H5.57A3.571 3.571 0 002 7v11.428A3.571 3.571 0 005.571 22H18.43A3.571 3.571 0 0022 18.428V7a3.571 3.571 0 00-3.571-3.572z" fill="#AAA"/></g></svg>