<svg width="15" height="15" viewBox="0 0 15 15" xmlns="http://www.w3.org/2000/svg"><path d="M12.594 2.022c.333-.063.635.01.906.218.27.209.437.485.5.829.063.343-.01.661-.219.953l-6.469 9.437c-.208.271-.473.438-.796.5a1.07 1.07 0 0 1-.891-.219c-.167-.125-.604-.567-1.313-1.328-.708-.76-1.374-1.495-2-2.203l-.968-1.062A1.293 1.293 0 0 1 1 8.24c0-.354.125-.656.375-.906s.542-.37.875-.36c.333.011.615.152.844.423l3.094 3.343 5.625-8.218c.208-.271.468-.438.78-.5z" fill="#26BEC9" fill-rule="evenodd"/></svg>