<svg width="23" height="23" viewBox="0 0 23 23" xmlns="http://www.w3.org/2000/svg"><g fill="none" fill-rule="evenodd"><path d="M11.5 0C17.847 0 23 5.153 23 11.5S17.847 23 11.5 23 0 17.847 0 11.5 5.153 0 11.5 0z" fill="#FFB400"/><path d="M11.5 0C17.847 0 23 5.153 23 11.5S17.847 23 11.5 23 0 17.847 0 11.5 5.153 0 11.5 0z"/><path d="M11.508 2.582a.291.291 0 1 1 0-.582c.336 0 .669.017 1 .052a.29.29 0 1 1-.061.578 9.022 9.022 0 0 0-.939-.048zm2.054.237a.29.29 0 1 1 .133-.566c.326.077.647.17.961.281a.29.29 0 1 1-.193.549 8.857 8.857 0 0 0-.901-.264zm1.942.705a.29.29 0 1 1 .261-.52c.299.15.589.316.87.496a.29.29 0 1 1-.315.49 8.918 8.918 0 0 0-.816-.466zm1.741 1.146a.29.29 0 1 1 .375-.445c.255.214.5.442.731.682a.29.29 0 1 1-.419.404 8.985 8.985 0 0 0-.687-.641zm1.41 1.488a.29.29 0 1 1 .465-.349c.2.267.387.544.558.83a.29.29 0 1 1-.5.299 8.95 8.95 0 0 0-.524-.78zM19.7 7.954a.29.29 0 1 1 .534-.231c.133.305.25.618.35.937a.29.29 0 1 1-.556.174 8.842 8.842 0 0 0-.328-.88zm.6 2a.29.29 0 1 1 .574-.101c.057.327.097.659.12.993a.29.29 0 0 1-.58.04 8.92 8.92 0 0 0-.114-.933zm.118 2.084a.291.291 0 0 1 .581.034c-.02.335-.057.666-.111.994a.291.291 0 0 1-.575-.096 8.92 8.92 0 0 0 .105-.932zm-.362 2.037a.291.291 0 0 1 .557.168c-.096.32-.21.634-.34.941a.291.291 0 0 1-.536-.226 8.85 8.85 0 0 0 .32-.883zm-.823 1.894a.291.291 0 0 1 .503.292c-.167.289-.35.568-.547.837a.291.291 0 0 1-.47-.343 8.93 8.93 0 0 0 .514-.786zM17.98 17.64a.291.291 0 0 1 .422.4c-.23.243-.473.472-.727.689a.291.291 0 0 1-.377-.443c.238-.203.466-.419.682-.646zm-1.568 1.312a.291.291 0 0 1 .32.485 9.492 9.492 0 0 1-.863.506.291.291 0 0 1-.268-.516c.278-.144.549-.303.81-.475zm-1.86.934a.291.291 0 0 1 .198.547c-.313.114-.633.21-.958.29a.291.291 0 0 1-.14-.564 8.86 8.86 0 0 0 .9-.273zm-2.037.476a.291.291 0 1 1 .065.578c-.33.038-.663.057-.999.06a.29.29 0 1 1-.004-.582c.315-.002.628-.02.938-.056zm-2.082-.007a.29.29 0 1 1-.07.577 9.466 9.466 0 0 1-.986-.172.29.29 0 1 1 .13-.567c.305.07.614.124.926.162zm-2.02-.488a.29.29 0 1 1-.201.546 9.465 9.465 0 0 1-.92-.397.29.29 0 1 1 .26-.52c.28.138.568.263.862.371zm-1.839-.936a.29.29 0 1 1-.322.485 9.553 9.553 0 0 1-.804-.597.29.29 0 1 1 .372-.448c.241.2.493.387.754.56zm-1.597-1.355a.29.29 0 1 1-.426.397 9.563 9.563 0 0 1-.643-.767.29.29 0 1 1 .465-.35c.188.25.39.491.604.72zm-1.211-1.638a.29.29 0 1 1-.505.29 9.461 9.461 0 0 1-.453-.892.29.29 0 1 1 .532-.235c.127.286.27.566.426.837zm-.821-1.915a.29.29 0 1 1-.558.165 9.424 9.424 0 0 1-.232-.973.29.29 0 1 1 .572-.105c.057.31.13.614.218.913zm-.351-2.063a.29.29 0 0 1-.582.03 9.638 9.638 0 0 1 .002-1.008.29.29 0 0 1 .581.031 9.132 9.132 0 0 0-.001.947zm.133-2.067a.291.291 0 0 1-.573-.104c.06-.329.137-.654.232-.973a.291.291 0 0 1 .558.164c-.088.3-.16.605-.217.913zm.613-1.992a.291.291 0 0 1-.532-.235c.135-.306.286-.603.452-.892a.291.291 0 0 1 .505.29c-.156.27-.298.55-.425.837zm1.046-1.774a.291.291 0 0 1-.464-.351c.201-.266.416-.522.644-.765a.291.291 0 0 1 .425.397 8.972 8.972 0 0 0-.605.719zM5.82 4.628a.291.291 0 0 1-.37-.448c.256-.213.524-.412.802-.596a.291.291 0 0 1 .323.484c-.261.173-.513.36-.755.56zm1.725-1.12a.291.291 0 0 1-.26-.521c.3-.148.606-.281.92-.397a.291.291 0 0 1 .202.545 8.88 8.88 0 0 0-.862.373zm1.964-.702a.291.291 0 0 1-.13-.567c.324-.074.653-.131.986-.171a.291.291 0 1 1 .07.578c-.313.037-.622.09-.926.16z" fill="#FFF" fill-rule="nonzero"/><path d="M12.521 12.9l3.304-3.612h-2.462l-3.394 3.48V5H8v12.987h1.97v-2.641l.987-1.023c.387 1.99 2.096 3.677 4.145 3.677.308 0 .608-.035.898-.1v-1.733a2.47 2.47 0 0 1-.889.158c-1.259-.009-2.6-1.197-2.6-2.673 0-.118 0-.496.01-.753z" fill="#FFF"/></g></svg>