<svg width="120" height="120" viewBox="0 0 120 120" xmlns="http://www.w3.org/2000/svg"><g fill="none" fill-rule="evenodd"><path fill="none" d="M0 0h120v120H0z"/><path d="M48.843 34.887c-.548-1.703-.589-3.654-.227-4.817.476-1.528 1.92-2.645 3.57-2.77a309.646 309.646 0 0 1 15.789 0c3.223.244 4.628 4.463 3.75 7.59 5.752.029 11.503.08 17.253.153 4.972.188 9.271 4.451 9.461 9.461.161 12.678.161 25.36 0 38.039-.188 4.975-4.453 9.27-9.461 9.46-19.264.235-38.532.235-57.796 0-4.972-.187-9.27-4.452-9.461-9.46-.161-12.679-.161-25.36 0-38.04.19-4.972 4.451-9.27 9.46-9.46 5.888-.075 11.775-.127 17.662-.156zm32.491 3.421a1955.957 1955.957 0 0 0-19.168-.025c-7.78.02-15.558.065-23.337.085v50.377c14.167.128 28.335.128 42.502 0V38.358l.003-.05zm3.334.027l.002.023v50.355c1.408-.014 2.816-.03 4.224-.047 3.217-.122 5.997-2.823 6.2-6.043.477-12.61.01-25.24.01-37.859-.043-3.33-2.864-6.257-6.21-6.383-1.409-.018-2.817-.033-4.226-.046zm-49.178.04c-1.35.002-2.699.004-4.048.004-3.33.042-6.256 2.862-6.383 6.21a1488.46 1488.46 0 0 0 0 37.869c.124 3.268 2.924 6.083 6.206 6.208 1.409.017 2.817.033 4.225.047V38.375zm32.425-3.502c1.098-.302 1.056-4.09-.078-4.235-5.016-.01-10.147.024-15.43-.003-1.252-.007-1.254 3.933-.157 4.238 5.222-.018 10.443-.018 15.665 0z" fill="#999" opacity=".5"/><path d="M61.679 66.072c0-.269.023-.917.068-1.943l8.653-11.5h-6.154l-8.92 11.244V51.2H50.4v25.674h4.927v-6.58l2.467-2.55c.967 4.958 5.238 9.162 10.362 9.162.772 0 1.521-.086 2.244-.246v-4.321a6.201 6.201 0 0 1-2.22.395c-3.15-.022-6.501-2.982-6.501-6.662" fill="#999" opacity=".5"/><g transform="translate(80.4 23.6)"><circle fill="#FFC612" cx="14.4" cy="14.4" r="14.4"/><g transform="translate(13 5)" fill="#FFF"><path d="M1.92.687a1.71 1.71 0 0 1 1.709 1.79l-.37 7.928a1.341 1.341 0 0 1-2.68 0L.212 2.477A1.71 1.71 0 0 1 1.92.687z"/><ellipse cx="1.92" cy="15.611" rx="1.792" ry="1.833"/></g></g></g></svg>