<svg width="15" height="15" viewBox="0 0 15 15" xmlns="http://www.w3.org/2000/svg"><path d="M13.688 12.094c.208.229.312.5.312.812 0 .313-.104.573-.313.781a1.06 1.06 0 0 1-.78.313c-.313 0-.584-.104-.813-.313L8 9.595l-4.094 4.094a1.13 1.13 0 0 1-1.562 0A1.012 1.012 0 0 1 2 12.905c0-.312.115-.583.344-.812L6.406 8 2.344 3.906A1.11 1.11 0 0 1 2 3.094c0-.313.115-.573.344-.781a1.13 1.13 0 0 1 1.562 0L8 6.405l4.094-4.093c.229-.209.5-.313.812-.313.313 0 .573.104.781.313.209.208.313.468.313.78 0 .313-.104.584-.313.813L9.595 8l4.094 4.094z" fill="#999" fill-rule="evenodd"/></svg>