<svg width="24" height="24" viewBox="0 0 24 24" xmlns="http://www.w3.org/2000/svg"><path d="M7.404 20.324c.324 0 .6.114.827.34.227.228.34.504.34.828 0 .324-.113.6-.34.827-.227.227-.503.34-.827.34-.324 0-.6-.113-.827-.34a1.126 1.126 0 0 1-.34-.827c0-.324.113-.6.34-.827.227-.227.503-.34.827-.34zm11.99 0c.324 0 .6.114.827.34.227.228.34.504.34.828 0 .324-.113.6-.34.827-.228.227-.503.34-.828.34-.324 0-.6-.113-.827-.34a1.126 1.126 0 0 1-.34-.827c0-.324.113-.6.34-.827.227-.227.503-.34.827-.34zm2.59-13.54l-.637 5.1a1 1 0 0 1-.818.861L7.238 15.1a.5.5 0 0 0-.406.574l.186 1.118c.25 1.213.714 1.82 1.392 1.82h12.417a.428.428 0 0 1 0 .856H8.41c-.607 0-1.107-.25-1.499-.75-.357-.5-.589-1.088-.696-1.766L3.914 4.428c-.107-.429-.232-.714-.375-.857-.285-.25-1.236-.374-1.98-.374-.745 0-.745-.857 0-.857.744 0 1.98.168 2.515.589.16.14.336.426.53.86a.5.5 0 0 0 .407.293l13.665 1.345 2.414.238a1 1 0 0 1 .894 1.12zm-1.342 4.34l.395-3.552a1 1 0 0 0-.893-1.106L5.54 4.976a.5.5 0 0 0-.543.588l1.505 8.276a.5.5 0 0 0 .579.403l12.742-2.246a1 1 0 0 0 .82-.874z" fill="#666" stroke="#666" stroke-width=".4" fill-rule="evenodd"/></svg>