<svg width="20" height="20" viewBox="0 0 20 20" xmlns="http://www.w3.org/2000/svg"><path d="M10 0c4.97 0 9 3.236 9 7.228 0 3.993-4.03 7.229-9 7.229-.546 0-1.08-.04-1.599-.114-.519.373-3.52 2.52-3.802 2.56 0 0-.117.046-.215-.013-.099-.06-.081-.215-.081-.215.03-.207.778-2.838.916-3.322C2.685 12.074 1 9.809 1 7.228 1 3.236 5.03 0 10 0zM5.25 9.669c.289 0 .523-.22.523-.49V6.14h.815a.508.508 0 0 0 .513-.501.508.508 0 0 0-.513-.502H3.913a.508.508 0 0 0-.513.502c0 .276.23.5.513.5h.815V9.18c0 .27.234.489.522.489zm4.582-.007a.813.813 0 0 0 .332-.07c.144-.066.283-.245.124-.729l-1.25-3.22a.786.786 0 0 0-.697-.506.786.786 0 0 0-.695.505l-1.25 3.222c-.159.483-.02.662.124.727.104.047.217.071.332.07.218 0 .384-.086.434-.225l.26-.664h1.592l.26.664c.05.14.216.226.434.226zm-.968-1.796H7.82l.522-1.453.522 1.453zm2.264 1.728h1.677c.276 0 .5-.21.5-.47 0-.258-.224-.468-.5-.468h-1.11V5.648a.524.524 0 0 0-.534-.512.524.524 0 0 0-.533.512v3.477c0 .258.224.469.5.469zm2.903.068c.289 0 .522-.23.523-.512V8.033l.181-.178 1.225 1.59a.522.522 0 0 0 .418.204.524.524 0 0 0 .517-.44.5.5 0 0 0-.1-.38L15.507 7.16 16.7 5.994a.394.394 0 0 0 .115-.312.5.5 0 0 0-.153-.324.52.52 0 0 0-.36-.152.41.41 0 0 0-.29.114l-1.457 1.428v-1.1a.518.518 0 0 0-.523-.512.518.518 0 0 0-.522.512V9.15c0 .282.234.512.522.512z" fill-rule="nonzero" fill="#FFF"/></svg>