<svg width="110" height="44" viewBox="0 0 110 44" xmlns="http://www.w3.org/2000/svg"><path d="M19.41 25.984v4.358a10.43 10.43 0 0 1-2.22.24c-5.126 0-9.793-3.58-10.73-8.447l-2.047 2.073v6.37H0V0h4.413v17.558l8.824-9.152h6.133l-5.685 6.042s-1.293 1.372-2.319 2.895c-.406.602-.627 1.6-.627 2.288 0 1.322.407 2.63 1.163 3.715 1.668 2.395 4.723 3.236 7.509 2.638zm35.711-5.98a2.162 2.162 0 0 1-2.16 2.163 2.162 2.162 0 0 1-2.16-2.163c0-1.195.967-2.163 2.16-2.163s2.16.968 2.16 2.163zm-2.138 6.518a6.479 6.479 0 0 0 6.474-6.483 6.479 6.479 0 0 0-6.474-6.483 6.479 6.479 0 0 0-6.474 6.483 6.478 6.478 0 0 0 6.474 6.483zM63.41 7.162l.074 12.863c0 5.83-4.711 10.557-10.523 10.557-5.812 0-10.523-4.727-10.523-10.557S47.148 9.47 52.96 9.47c2.245 0 4.326.707 6.034 1.91V0h4.415v7.162zm12.758 19.477a6.478 6.478 0 0 0 6.474-6.482 6.479 6.479 0 0 0-6.474-6.483 6.479 6.479 0 0 0-6.475 6.483 6.478 6.478 0 0 0 6.475 6.482zm0-17.14c5.811 0 10.523 4.717 10.523 10.537l-.102 9.061v1.485h-4.415v-1.895a10.46 10.46 0 0 1-6.006 1.886c-5.813 0-10.524-4.718-10.524-10.537 0-5.82 4.711-10.538 10.524-10.538zm0 8.306a2.163 2.163 0 0 1 0 4.327 2.163 2.163 0 0 1 0-4.327zm33.747 3.074v12.286c0 6.654-4.865 10.727-10.52 10.727h-.003c-5.763-.002-10.417-3.862-10.511-9.508h4.484c.052.576.119 1.032.203 1.314.718 2.411 2.981 4.182 5.828 4.182 2.846 0 5.11-1.77 5.828-4.181.411-1.38.4-3.56.352-6.87-1.733 1.109-3.867 1.732-6.18 1.732-3.35 0-6.322-1.309-8.246-3.51-1.42-1.624-2.274-3.733-2.274-6.172l-.025-11.37h4.414s-.293 10.858.303 12.859c.205.69.541 1.325.978 1.884 1.088 1.393 2.819 2.297 4.85 2.297 2.031 0 3.762-.904 4.85-2.297a5.707 5.707 0 0 0 .978-1.884c.596-2.001.303-12.86.303-12.86h4.414l-.026 11.371zm-68.563 4.798a10.582 10.582 0 0 0 2.792 3.78c-1.488.73-3.6 1.275-5.28 1.275-5.127 0-9.795-3.73-10.731-8.597l-2.048 2.073v6.371h-4.412V0h4.412V17.56l9.125-9.153h6.133l-5.985 6.043s-1.294 1.371-2.32 2.894c-.405.602-.627 1.6-.627 2.288 0 3.586 2.898 6.536 6.474 6.536.723 0 1.674-.216 2.467-.49z" fill="#26BEC9" fill-rule="evenodd"/></svg>