<?xml version="1.0" encoding="utf-8"?>
<!-- Generator: Adobe Illustrator 16.0.0, SVG Export Plug-In . SVG Version: 6.00 Build 0)  -->
<!DOCTYPE svg PUBLIC "-//W3C//DTD SVG 1.1//EN" "http://www.w3.org/Graphics/SVG/1.1/DTD/svg11.dtd">
<svg version="1.1" id="图层_1" xmlns="http://www.w3.org/2000/svg" xmlns:xlink="http://www.w3.org/1999/xlink" x="0px" y="0px"
	 width="100px" height="100px" viewBox="0 0 100 100" enable-background="new 0 0 100 100" xml:space="preserve">
<path fill="#26BEC9" d="M99.985,19.059c0-1.24-0.107-2.5-0.307-3.721c-1.285-7.93-8.779-15.381-18.746-15.342
	C67.159,0.045,53.394,0.036,39.624,0.036v51.366l23.731-23.67h17.217L57.589,52.104l-0.011,0.005
	c-0.186,1.049-0.185,4.201-0.185,5.302c0,10.039,9.385,18.118,18.188,18.184c2.184,0.013,4.277-0.378,6.217-1.081v11.797
	c-2.027,0.437-4.127,0.671-6.285,0.671c-14.33,0-26.27-11.472-28.975-25.014l-6.914,6.96v17.969H25.85V0.049
	c-2.301,0.006-4.6,0-6.9,0.006c-2.08,0.01-4.258,0.332-6.23,0.986C4.936,3.639,0.024,10.68,0.004,18.971
	c-0.01,10.312,0,20.625,0,30.933c0,10.313-0.01,20.625,0.016,30.938c0,1.282,0.082,2.571,0.312,3.828
	c1.644,8.945,9.3,15.306,18.519,15.312c20.699,0.032,41.393,0.032,62.086-0.026c1.986,0,4.057-0.254,5.938-0.859
	c8.09-2.598,13.109-9.648,13.119-18.157C100.005,60.314,100.001,39.694,99.985,19.059z"/>
</svg>
