<svg width="20" height="20" viewBox="0 0 20 20" xmlns="http://www.w3.org/2000/svg"><path d="M16.826 9.35s.015 1.538-1.555 1.538h-.478V9.89h.288s.66.06.652-.95c0 0-.129.409-1.054.409 0 0-1.312-.094-1.312-1.368v-.483s.03-1.321 1.471-1.427c0 0 .57-.06.918.408v-.325h1.07V9.35zm-5.776 0c-.976 0-1.767-.725-1.767-1.62 0-.893.791-1.618 1.767-1.618.976 0 1.767.725 1.767 1.619s-.79 1.619-1.767 1.619zM8.551 6.208v3.027H7.497V6.238c0-.407-.508-.52-.508-.52V4.66c1.683.068 1.562 1.547 1.562 1.547zM6.655 7.884c-.007 1.423-1.486 1.464-1.486 1.464-.572 0-.895-.377-.895-.377v.256H3.197v-4.42c-.005-.001-.005-.002 0-.003v.003c.066.01 1.077-.003 1.077-.003v1.69c.253-.429.986-.422.986-.422 1.594.148 1.395 1.812 1.395 1.812zM16.592 1A2.402 2.402 0 0 1 19 3.396v7.788a2.402 2.402 0 0 1-2.408 2.396h-4.614l-1.584 3.713s-.109.322-.373.322-.373-.322-.373-.322L8.065 13.58H3.408A2.402 2.402 0 0 1 1 11.184V3.396A2.402 2.402 0 0 1 3.408 1h13.184zM4.928 7.131a.619.619 0 0 0-.62.617c0 .34.278.617.62.617.342 0 .62-.277.62-.617a.619.619 0 0 0-.62-.617zm6.122-.064a.666.666 0 0 0-.667.664.666.666 0 1 0 1.335 0c0-.367-.3-.664-.668-.664zm4.1.015c-.36 0-.653.29-.653.649 0 .358.292.649.652.649.36 0 .653-.29.653-.65a.651.651 0 0 0-.653-.648z" fill="#FFF" fill-rule="evenodd"/></svg>