<svg width="751" height="750" viewBox="0 0 751 750" xmlns="http://www.w3.org/2000/svg"><g fill-rule="nonzero" fill="none"><path d="M375.151 750c-207.106 0-375-167.895-375-375 0-207.107 167.894-375 375-375s375 167.893 375 375c0 207.105-167.894 375-375 375z" fill="#EEE"/><g transform="translate(153 151)"><ellipse fill="#CCC" cx="126.824" cy="431.161" rx="20.727" ry="20.754"/><ellipse fill="#CCC" cx="339.061" cy="431.161" rx="20.727" ry="20.754"/><path d="M96.702 178.715h275.69c11.06 0 19.238 6.368 18.24 14.223l-20.237 126.587c-1.513 7.856-10.321 14.224-19.645 14.224H118.343c-9.323 0-18.131-6.368-19.645-14.224L78.461 192.938c-.998-7.855 7.181-14.223 18.241-14.223z" fill="#CCC"/><path d="M239.064 272.206c0-1.29.012-6.476.23-7.704v1.493l26.857-28.576h-20.12l-27.727 27.749v-60.27h-16.1v101.874h16.1v-21.059l8.073-8.157c3.155 15.868 17.114 29.32 33.864 29.32 2.52 0 4.971-.277 7.337-.792V292.26a20.662 20.662 0 0 1-7.265 1.266c-10.282-.073-21.25-9.545-21.25-21.32" fill="#FFF"/><g fill="#CCC"><path d="M272.142 18.29a8.225 8.225 0 0 1 9.528 6.672l8.32 47.177a8.225 8.225 0 1 1-16.2 2.856l-8.32-47.176a8.225 8.225 0 0 1 6.672-9.528zM348.5 25.726a8.225 8.225 0 0 1 5.46 10.27l-15.561 50.9a8.225 8.225 0 0 1-15.732-4.81l15.562-50.9a8.225 8.225 0 0 1 10.27-5.46zM418.254 67.492a8.225 8.225 0 0 1-.812 11.604l-33.744 29.332a8.225 8.225 0 0 1-10.793-12.415l33.745-29.332a8.225 8.225 0 0 1 11.604.811z"/></g><path d="M76.806 186.302c-9.85-42.793-15.95-64.526-20.215-69.918-7.377-9.328-23.246-14.009-47.973-15.364a7.45 7.45 0 1 0-.815 14.879c20.73 1.136 33.219 4.82 37.1 9.728.702.887 2.956 7.171 5.757 17.152 3.096 11.028 6.974 26.66 11.625 46.866 9.332 40.541 21.754 99.401 37.26 176.56.087.435.214.861.377 1.274 7.807 19.717 19.302 30.468 34.468 30.468h223.387a7.45 7.45 0 0 0 0-14.9H134.39c-7.843 0-14.629-6.245-20.37-20.446-15.47-76.954-27.872-135.714-37.214-176.299z" fill="#CCC"/></g></g></svg>